<svg width="75" height="75" viewBox="0 0 75 75" fill="none" xmlns="http://www.w3.org/2000/svg">
<path d="M37.5001 74.6011C57.9904 74.6011 74.6011 57.9904 74.6011 37.5001C74.6011 17.0097 57.9904 0.39904 37.5001 0.39904C17.0098 0.39904 0.399048 17.0097 0.399048 37.5001C0.399048 57.9904 17.0098 74.6011 37.5001 74.6011Z" fill="#E53E3E"/>
<path d="M54.434 36.1221H38.8778V20.5679C38.8778 19.8068 38.2627 19.1902 37.502 19.1902C36.741 19.1902 36.1259 19.8068 36.1259 20.5679V36.1221H20.5658C19.8051 36.1221 19.1901 36.7391 19.1901 37.4998C19.1901 38.2609 19.8051 38.8775 20.5658 38.8775H36.1259V54.4337C36.1259 55.1948 36.741 55.8114 37.502 55.8114C38.2627 55.8114 38.8778 55.1948 38.8778 54.4337V38.8775H54.434C55.195 38.8775 55.8097 38.2609 55.8097 37.4998C55.8097 36.7391 55.195 36.1221 54.434 36.1221Z" fill="white"/>
</svg>
